<mxfile host="app.diagrams.net" modified="2024-02-17T03:55:20.083Z" agent="Mozilla/5.0 (Windows NT 10.0; Win64; x64) AppleWebKit/537.36 (KHTML, like Gecko) Chrome/121.0.0.0 Safari/537.36" version="23.1.5" etag="3jRKI_lUaJlUDeZyKE8x" type="github">
  <diagram name="페이지-1" id="PXnMrBto8qI29V7q2yba">
    <mxGraphModel>
      <root>
        <mxCell id="0" />
        <mxCell id="1" parent="0" />
      </root>
    </mxGraphModel>
  </diagram>
</mxfile>
